<svg width="10px" height="10px" viewBox="0 0 32 32" fill="none" xmlns="http://www.w3.org/2000/svg">
<path d="M4 13H28C28.3978 13 28.7794 12.842 29.0607 12.5607C29.342 12.2794 29.5 11.8978 29.5 11.5C29.5 11.1022 29.342 10.7206 29.0607 10.4393C28.7794 10.158 28.3978 10 28 10H4C3.60217 10 3.22065 10.158 2.93934 10.4393C2.65804 10.7206 2.5 11.1022 2.5 11.5C2.5 11.8978 2.65804 12.2794 2.93934 12.5607C3.22065 12.842 3.60217 13 4 13ZM14 22H28C28.3978 22 28.7794 21.842 29.0607 21.5607C29.342 21.2794 29.5 20.8978 29.5 20.5C29.5 20.1022 29.342 19.7206 29.0607 19.4393C28.7794 19.158 28.3978 19 28 19H14C13.6022 19 13.2206 19.158 12.9393 19.4393C12.658 19.7206 12.5 20.1022 12.5 20.5C12.5 20.8978 12.658 21.2794 12.9393 21.5607C13.2206 21.842 13.6022 22 14 22Z" fill="white"/>
</svg>
